<svg width="19" height="19" viewBox="0 0 19 19" fill="none" xmlns="http://www.w3.org/2000/svg">
<path d="M11.7131 7.46652L7.91812 11.2615C7.43062 10.774 7.13062 10.1065 7.13062 9.36402C7.13062 7.87902 8.33062 6.67902 9.81562 6.67902C10.5581 6.67902 11.2256 6.97902 11.7131 7.46652Z" stroke="var(--icon-color)" stroke-linecap="round" stroke-linejoin="round"/>
<path d="M14.1806 4.69156C12.8681 3.70156 11.3681 3.16156 9.81556 3.16156C7.16806 3.16156 4.70056 4.72156 2.98306 7.42156C2.30806 8.47906 2.30806 10.2566 2.98306 11.3141C3.57556 12.2441 4.26556 13.0466 5.01556 13.6916" stroke="var(--icon-color)" stroke-linecap="round" stroke-linejoin="round"/>
<path d="M7.13062 15.0115C7.98562 15.3715 8.89312 15.5665 9.81562 15.5665C12.4631 15.5665 14.9306 14.0065 16.6481 11.3065C17.3231 10.249 17.3231 8.47152 16.6481 7.41402C16.4006 7.02402 16.1306 6.65652 15.8531 6.31152" stroke="var(--icon-color)" stroke-linecap="round" stroke-linejoin="round"/>
<path d="M12.4483 9.88904C12.2533 10.9465 11.3908 11.809 10.3333 12.004" stroke="var(--icon-color)" stroke-linecap="round" stroke-linejoin="round"/>
<path d="M7.91817 11.2616L2.31567 16.8641" stroke="var(--icon-color)" stroke-linecap="round" stroke-linejoin="round"/>
<path d="M17.3156 1.86407L11.7131 7.46657" stroke="var(--icon-color)" stroke-linecap="round" stroke-linejoin="round"/>
</svg>
