<svg width="19" height="19" viewBox="0 0 19 19" fill="none" xmlns="http://www.w3.org/2000/svg">
<path d="M14.3524 13.3887L14.6449 15.7587C14.7199 16.3812 14.0524 16.8162 13.5199 16.4937L10.3774 14.6262C10.0324 14.6262 9.69489 14.6037 9.36489 14.5587C9.91989 13.9062 10.2499 13.0812 10.2499 12.1887C10.2499 10.0587 8.40489 8.33372 6.12489 8.33372C5.25489 8.33372 4.45239 8.5812 3.78489 9.0162C3.76239 8.8287 3.75488 8.6412 3.75488 8.4462C3.75488 5.0337 6.71738 2.2662 10.3774 2.2662C14.0374 2.2662 16.9999 5.0337 16.9999 8.4462C16.9999 10.4712 15.9574 12.2637 14.3524 13.3887Z" stroke="var(--cmt-btn-back)" stroke-linecap="round" stroke-linejoin="round"/>
<path d="M10.25 12.1888C10.25 13.0813 9.92001 13.9063 9.36501 14.5588C8.62251 15.4588 7.445 16.0363 6.125 16.0363L4.1675 17.1988C3.8375 17.4013 3.4175 17.1238 3.4625 16.7413L3.65 15.2638C2.645 14.5663 2 13.4488 2 12.1888C2 10.8688 2.705 9.70631 3.785 9.01631C4.4525 8.58131 5.255 8.33383 6.125 8.33383C8.405 8.33383 10.25 10.0588 10.25 12.1888Z" stroke="var(--cmt-btn-back)" stroke-linecap="round" stroke-linejoin="round"/>
</svg>
