<svg width="434" height="462" viewBox="0 0 434 462" fill="none" xmlns="http://www.w3.org/2000/svg">
<line x1="3.36646" y1="460.337" x2="433.366" y2="460.337" stroke="#263238" stroke-width="1.5"/>
<rect opacity="0.4" x="156.367" y="276.675" width="134.14" height="183.105" fill="#575089"/>
<path d="M129.856 440.309C132.951 440.606 217.168 420.392 219.807 417.646C220.128 417.337 218.463 409.667 216.021 399.189L215.972 398.979C214.442 392.336 189.852 338.671 189.852 338.671L135.269 353.998L160.119 403.803C160.119 403.803 149.846 411.25 141.053 418.327C141.041 418.339 141.029 418.339 141.029 418.351C135.59 422.693 130.904 426.603 129.917 427.864C127.364 431.155 126.772 440.037 129.856 440.309Z" fill="#FFCEC8"/>
<path d="M129.868 440.297C132.951 440.594 217.168 420.38 219.832 417.646C220.152 417.337 218.487 409.667 216.046 399.189L215.996 398.991C215.441 396.517 211.643 387.498 207.142 377.156C198.164 379.594 165.964 388.352 154.261 391.989L160.144 403.791C160.144 403.791 149.883 411.25 141.078 418.314C141.078 418.326 141.066 418.327 141.066 418.339C135.627 422.681 130.941 426.59 129.942 427.852C127.364 431.167 126.772 440.037 129.868 440.297Z" fill="white"/>
<path d="M129.584 440.705C132.766 440.977 217.032 420.529 219.758 417.72C220.793 416.656 218.919 403.321 214.282 389.181L159.971 402.43C159.971 402.43 132.248 424.487 129.596 427.901C126.957 431.303 126.402 440.433 129.584 440.705Z" fill="#8984AA"/>
<path d="M129.979 437.031C144.025 433.258 201.012 419.353 215.182 416.694C215.293 416.669 215.318 416.755 215.207 416.78C201.37 420.825 144.272 434.26 130.04 437.254C129.732 437.328 129.683 437.105 129.979 437.031Z" fill="#263238"/>
<path d="M134.283 423.547C137.6 422.594 141.263 423.398 143.569 424.957C145.789 426.454 147.947 428.792 148.551 431.761C148.563 431.848 148.415 431.885 148.378 431.798C146.233 426.454 140.029 422.792 134.32 423.72C134.209 423.745 134.172 423.572 134.283 423.547Z" fill="#263238"/>
<path d="M155.889 404.929C161.525 403.482 168.566 403.89 173.191 407.675C173.376 407.824 173.154 408.071 172.969 408.034C167.222 406.636 161.882 405.844 155.95 405.659C155.543 405.634 155.482 405.028 155.889 404.929Z" fill="#263238"/>
<path d="M151.93 407.688C157.566 406.24 164.608 406.649 169.232 410.434C169.417 410.582 169.195 410.83 169.01 410.793C163.263 409.395 157.923 408.603 151.992 408.418C151.585 408.393 151.535 407.799 151.93 407.688Z" fill="#263238"/>
<path d="M147.984 410.459C153.62 409.011 160.661 409.42 165.286 413.205C165.471 413.353 165.249 413.601 165.064 413.564C159.317 412.166 153.977 411.374 148.045 411.189C147.638 411.164 147.577 410.558 147.984 410.459Z" fill="#263238"/>
<path d="M144.025 413.217C149.661 411.77 156.703 412.178 161.327 415.964C161.512 416.112 161.29 416.36 161.105 416.322C155.359 414.925 150.019 414.133 144.087 413.947C143.68 413.935 143.631 413.329 144.025 413.217Z" fill="#263238"/>
<path d="M208.338 404.112C214.689 402.591 217.057 412.488 210.693 414.009C204.342 415.531 201.974 405.634 208.338 404.112Z" fill="#263238"/>
<path d="M146.134 391.272C148.428 388.191 152.584 389.651 154.951 391.692C158.774 395.008 162.092 400.141 163.584 404.954C163.621 405.077 163.547 405.139 163.448 405.164C163.424 405.597 163.029 406.055 162.536 405.869C157.837 404.051 152.584 402.69 148.588 399.486C146.245 397.605 143.963 394.179 146.134 391.272ZM155.975 401.638C158.269 402.591 160.587 403.42 162.844 404.459C161.155 401.873 159.576 399.238 157.628 396.826C156.703 395.676 155.716 394.513 154.643 393.498C152.966 391.927 146.27 388.525 147.195 394.834C147.7 398.323 153.25 400.513 155.975 401.638Z" fill="#263238"/>
<path d="M178.136 403.642C173.401 405.597 167.974 405.424 162.955 405.844C162.437 405.894 162.178 405.337 162.277 404.917C162.191 404.88 162.129 404.781 162.203 404.682C164.99 400.488 169.602 396.492 174.202 394.389C177.039 393.09 181.441 392.867 182.785 396.467C184.056 399.857 180.899 402.504 178.136 403.642ZM180.775 399.585C183.427 393.795 176.052 395.168 174.005 396.208C172.685 396.876 171.427 397.717 170.207 398.558C167.666 400.327 165.409 402.418 163.066 404.409C165.52 404.051 167.974 403.902 170.441 403.642C173.376 403.321 179.308 402.776 180.775 399.585Z" fill="#263238"/>
<path d="M153.965 399.238L212.445 381.647C212.445 381.647 164.25 280.887 165.767 275.766C166.778 272.339 239.045 272.104 260.232 253.028C282.159 233.284 265.091 194.502 265.091 194.502L204.33 194.193C204.33 194.193 205.378 206.91 203.047 208.889C201.518 210.213 118.448 217.536 102.54 248.179C88.0985 275.976 153.965 399.238 153.965 399.238Z" fill="#263238"/>
<path d="M165.755 275.753C165.496 276.619 166.667 280.244 168.801 285.65L125.145 339.475C109.569 303.86 94.9307 262.801 102.527 248.166C118.436 217.524 201.506 210.188 203.047 208.877C205.354 206.897 204.318 194.168 204.318 194.168L242.881 194.366L178.79 273.341C171.07 274.207 166.026 274.862 165.755 275.753Z" fill="#263238"/>
<path d="M152.51 386.831C154.027 386.064 155.691 385.593 157.282 385.049C158.972 384.48 160.661 383.899 162.351 383.342C165.693 382.266 169.035 381.239 172.414 380.274C179.209 378.344 186.004 376.464 192.849 374.72C196.413 373.816 204.059 371.825 204.527 371.899C204.749 371.936 204.811 372.32 204.601 372.394C197.991 374.769 191.282 376.798 184.574 378.851C177.877 380.905 171.156 382.921 164.373 384.641C162.487 385.123 160.6 385.544 158.713 385.989C156.74 386.459 154.742 387.103 152.707 387.276C152.497 387.313 152.3 386.942 152.51 386.831Z" fill="#455A64"/>
<path d="M261.81 206.106C261.625 204.077 261.391 202.036 261.169 200.007C261.145 199.772 260.775 199.772 260.799 200.019C261.613 208.258 262.439 216.695 260.935 224.909C259.517 232.591 255.768 239.321 250.082 244.641C238.034 255.923 221.176 259.238 205.464 261.923C196.474 263.457 187.422 264.644 178.333 265.535C173.882 265.968 169.43 266.327 164.965 266.611C160.55 266.883 156.111 266.933 151.696 267.18C150.302 267.254 149.057 267.898 149.266 269.494C149.402 270.458 149.945 271.411 150.327 272.289C150.796 273.366 151.277 274.442 151.745 275.518C153.521 279.539 155.297 283.559 157.097 287.58C160.797 295.856 164.546 304.107 168.357 312.334C175.904 328.675 183.747 344.881 191.85 360.938C192.861 362.93 193.86 364.922 194.883 366.914C194.945 367.05 195.142 366.926 195.081 366.802C187.336 350.535 179.665 334.218 172.106 317.851C168.357 309.723 164.608 301.608 160.896 293.468C159.046 289.398 157.196 285.328 155.371 281.246C154.458 279.205 153.546 277.163 152.633 275.122C152.177 274.095 151.721 273.081 151.264 272.054C150.882 271.201 149.513 269.172 150.463 268.38C151.092 267.848 152.411 268.034 153.176 268.009C154.347 267.972 155.531 267.935 156.703 267.898C158.935 267.823 161.167 267.737 163.399 267.626C167.925 267.403 172.439 267.094 176.94 266.698C185.77 265.931 194.575 264.805 203.331 263.395C218.944 260.871 235.913 258.038 248.405 247.523C253.918 242.884 258.246 236.921 260.38 229.994C262.772 222.274 262.538 214.048 261.81 206.106Z" fill="#455A64"/>
<path d="M1.37811 363.066C3.57325 365.268 81.291 403.581 85.077 403.16C85.521 403.135 89.122 396.158 93.8946 386.521L93.9933 386.336C97.0393 380.249 124.688 329.022 124.688 329.022L76.3335 304.466L47.92 354.308C47.92 354.308 35.2794 353.479 23.9954 353.293C23.9831 353.293 23.9708 353.293 23.9584 353.306C17.0031 353.17 10.9233 353.182 9.34475 353.516C5.2751 354.431 -0.829365 360.889 1.37811 363.066Z" fill="#FFCEC8"/>
<path d="M1.37818 363.066C3.57332 365.268 81.2911 403.58 85.0771 403.16C85.5211 403.135 89.1221 396.158 93.8947 386.534L93.9934 386.348C94.203 385.927 94.425 385.494 94.647 385.061C94.7949 384.752 94.9553 384.443 95.1279 384.134C95.3622 383.676 95.6089 383.218 95.8555 382.76C97.9643 378.752 101.417 372.282 105.228 365.182L55.9237 340.254L47.9077 354.32C47.9077 354.32 35.2672 353.491 23.9832 353.306C23.9709 353.306 23.9585 353.306 23.9462 353.318C17.0031 353.194 10.8987 353.194 9.34482 353.528C5.27518 354.431 -0.829289 360.889 1.37818 363.066Z" fill="white"/>
<path d="M0.909583 363.202C3.19105 365.454 81.0938 403.618 84.9785 403.185C86.4584 403.024 93.4878 391.556 98.9016 377.701L48.6477 353.157C48.6477 353.157 13.2665 352.415 9.04887 353.343C4.86824 354.283 -1.35955 360.963 0.909583 363.202Z" fill="#8984AA"/>
<path d="M3.54863 360.629C16.7688 366.703 69.5015 392.459 82.105 399.473C82.2037 399.535 82.1667 399.597 82.0681 399.56C68.8356 393.82 16.3125 367.643 3.44999 360.852C3.17868 360.703 3.27732 360.493 3.54863 360.629Z" fill="#263238"/>
<path d="M15.4492 352.996C18.6063 354.382 20.9124 357.351 21.7017 360.023C22.4539 362.596 22.6266 365.775 21.2207 368.447C21.1837 368.522 21.0357 368.46 21.0604 368.373C22.8116 362.881 20.3574 356.101 15.3629 353.17C15.2642 353.095 15.3382 352.947 15.4492 352.996Z" fill="#263238"/>
<path d="M43.9246 352.477C49.1905 354.963 54.3453 359.788 55.5046 365.664C55.5539 365.887 55.2209 365.949 55.1099 365.8C51.5706 361.037 47.9696 357.017 43.5176 353.083C43.2093 352.798 43.5423 352.291 43.9246 352.477Z" fill="#263238"/>
<path d="M39.115 352.068C44.3809 354.555 49.5358 359.38 50.695 365.256C50.7443 365.478 50.4114 365.54 50.3004 365.392C46.761 360.629 43.16 356.609 38.7081 352.675C38.3998 352.39 38.7451 351.895 39.115 352.068Z" fill="#263238"/>
<path d="M34.3177 351.673C39.5835 354.159 44.7384 358.984 45.8976 364.86C45.947 365.083 45.614 365.144 45.503 364.996C41.9636 360.233 38.3626 356.213 33.9107 352.279C33.6024 351.994 33.9354 351.499 34.3177 351.673Z" fill="#263238"/>
<path d="M29.5081 351.277C34.774 353.763 39.9288 358.588 41.0881 364.464C41.1374 364.687 40.8044 364.749 40.6934 364.6C37.1541 359.837 33.5531 355.817 29.1011 351.883C28.7928 351.598 29.1381 351.091 29.5081 351.277Z" fill="#263238"/>
<path d="M84.8429 385.395C90.7007 388.29 86.2364 397.42 80.3663 394.525C74.5084 391.643 78.9727 382.501 84.8429 385.395Z" fill="#263238"/>
<path d="M45.0836 335.714C48.7956 334.811 51.0894 338.597 51.6074 341.677C52.446 346.675 51.743 352.749 49.8315 357.413C49.7822 357.524 49.6836 357.536 49.5972 357.487C49.3013 357.809 48.7093 357.908 48.4503 357.45C45.9839 353.046 42.8022 348.642 41.7663 343.607C41.1496 340.663 41.5689 336.568 45.0836 335.714ZM46.0702 350.003C47.2294 352.205 48.4873 354.32 49.5726 356.559C49.9055 353.491 50.3742 350.448 50.4112 347.343C50.4235 345.858 50.4112 344.337 50.2262 342.865C49.9302 340.576 46.9335 333.686 43.6408 339.129C41.8156 342.147 44.689 347.38 46.0702 350.003Z" fill="#263238"/>
<path d="M61.868 365.714C56.9721 364.18 52.9148 360.58 48.7835 357.697C48.3518 357.4 48.5122 356.819 48.8575 356.547C48.8205 356.46 48.8328 356.349 48.9438 356.324C53.7534 354.864 59.8578 354.753 64.7291 356.064C67.7381 356.881 71.2775 359.528 70.0196 363.153C68.8357 366.592 64.7291 366.604 61.868 365.714ZM66.4802 364.279C72.2024 361.507 65.654 357.858 63.4095 357.338C61.9666 357.004 60.4621 356.844 58.9946 356.72C55.9115 356.448 52.8531 356.621 49.7701 356.67C51.8912 357.969 53.8767 359.429 55.9362 360.802C58.4026 362.423 63.3232 365.8 66.4802 364.279Z" fill="#263238"/>
<path d="M106.474 375.474L48.1668 346.254C48.1668 346.254 98.1987 244.863 114.601 228.88C135.948 208.06 211.409 212.563 211.409 212.563C207.598 201.825 207.795 194.489 207.795 194.489L273.785 194.526C284.523 219.969 297.238 272.019 262.192 276.681H156.974C151.98 282.668 106.474 375.474 106.474 375.474Z" fill="#263238"/>
<path d="M223.433 219.256C220.029 216.942 216.576 214.753 212.938 212.823C211.1 211.846 207.327 210.176 204.984 209.606C203.06 209.136 202.221 209 204.022 209.854C205.058 210.349 207.031 211.289 208.881 212.167C208.535 212.155 208.19 212.142 207.857 212.13C206.562 212.068 205.267 212.019 203.96 211.982C201.42 211.92 198.879 211.932 196.351 211.92C191.196 211.895 186.103 212.378 180.973 212.637C180.837 212.65 180.837 212.86 180.973 212.848C186.103 212.674 191.246 212.959 196.376 212.934C198.916 212.922 201.457 212.996 203.985 213.046C205.23 213.07 206.464 213.095 207.709 213.107C208.733 213.12 209.818 213.206 210.866 213.107C211.421 213.367 211.914 213.602 212.284 213.775C216.021 215.544 219.733 217.388 223.334 219.417C223.42 219.478 223.531 219.33 223.433 219.256Z" fill="#455A64"/>
<path d="M206.229 192.015C206.895 195.133 207.475 198.287 208.252 201.38C208.609 202.802 208.967 204.25 209.448 205.635C209.855 206.798 210.496 208.147 211.816 208.444C213.345 208.79 213.826 207.491 213.74 206.217C213.653 204.794 213.333 203.359 213.098 201.961C212.827 200.341 212.556 198.72 212.321 197.1C212.198 196.283 212.075 195.479 211.964 194.663C211.939 194.452 211.84 192.906 211.742 192.461C211.729 192.498 211.705 192.535 211.655 192.522C211.643 192.522 211.618 192.51 211.606 192.51C211.569 192.498 211.52 192.473 211.52 192.423C211.507 192.3 211.507 192.275 211.606 192.188C211.643 192.151 211.705 192.151 211.742 192.188C212.025 192.362 212.038 192.757 212.124 193.067C212.346 193.858 212.58 194.65 212.778 195.454C213.16 196.951 213.518 198.448 213.851 199.945C214.171 201.454 214.492 202.951 214.8 204.46C215.034 205.586 215.318 206.774 214.985 207.912C214.615 209.149 213.592 209.755 212.494 209.804C212.543 209.903 212.605 210.002 212.642 210.114C212.765 210.423 212.852 210.757 212.963 211.066C213.074 211.388 213.16 211.709 213.246 212.043C213.283 212.204 213.308 212.365 213.32 212.526C213.333 212.712 213.296 212.885 213.308 213.058C213.333 213.33 212.95 213.491 212.827 213.219C212.753 213.058 212.642 212.934 212.556 212.773C212.469 212.613 212.408 212.427 212.346 212.241C212.247 211.932 212.173 211.61 212.099 211.301C212.038 210.98 211.951 210.67 211.902 210.349C211.877 210.163 211.877 209.965 211.865 209.78C211.236 209.693 210.619 209.458 210.102 209.037C209.201 208.308 208.696 207.219 208.35 206.143C207.931 204.844 207.61 203.495 207.29 202.159C206.5 198.856 205.859 195.504 205.662 192.114C205.65 191.768 206.155 191.656 206.229 192.015Z" fill="#455A64"/>
<path d="M238.046 200.91C238.268 202.456 238.404 204.015 238.7 205.549C238.996 207.046 239.353 208.555 239.785 210.027C240.204 211.425 240.735 212.848 241.536 214.085C242.313 215.285 243.349 216.324 244.434 217.252C246.556 219.058 248.973 220.518 251.55 221.544C252.845 222.064 254.189 222.509 255.533 222.868C256.236 223.054 256.952 223.202 257.679 223.313C258.283 223.412 258.875 223.449 259.406 223.771C259.628 223.907 259.578 224.266 259.356 224.377C258.419 224.798 257.124 224.501 256.15 224.377C255.003 224.216 253.856 223.981 252.746 223.66C250.502 223.004 248.331 221.965 246.358 220.703C244.422 219.454 242.486 217.92 241.092 216.076C239.649 214.159 238.873 211.945 238.416 209.619C237.861 206.823 237.516 203.792 237.763 200.947C237.763 200.761 238.022 200.737 238.046 200.91Z" fill="#455A64"/>
<path d="M59.9934 335.615C61.6213 336.098 63.1505 336.902 64.6797 337.607C66.2952 338.349 67.923 339.092 69.5262 339.859C72.6956 341.368 75.828 342.927 78.9357 344.559C85.1882 347.838 91.4283 351.153 97.5944 354.592C100.813 356.386 107.719 360.209 108.015 360.58C108.151 360.765 107.929 361.074 107.732 360.988C101.306 358.155 95.0293 355.013 88.7522 351.883C82.4751 348.753 76.2103 345.611 70.0935 342.184C68.404 341.232 66.7392 340.242 65.0496 339.265C63.2861 338.25 61.3993 337.335 59.7961 336.061C59.6481 335.949 59.7591 335.554 59.9934 335.615Z" fill="#455A64"/>
<path d="M273.736 209.928C273.724 209.644 273.292 209.656 273.304 209.941C273.428 224.315 271.22 240.385 260.183 250.69C248.085 261.997 230.647 263.345 214.948 263.209C205.933 263.135 196.943 262.9 187.928 263.184C178.876 263.469 169.738 263.914 160.748 265.065C157.122 265.535 154.076 266.834 151.511 269.494C149.02 272.079 147.232 275.258 145.394 278.314C140.856 285.848 136.466 293.468 132.223 301.163C123.776 316.465 115.969 332.102 108.78 348.036C107.892 350.015 107.004 351.994 106.128 353.986C106.067 354.122 106.264 354.233 106.326 354.097C113.626 338.102 121.519 322.379 129.893 306.928C134.086 299.196 138.414 291.551 142.891 283.98C145 280.417 147.034 276.78 149.377 273.378C151.449 270.372 154.039 267.539 157.64 266.45C159.798 265.795 162.117 265.683 164.349 265.473C166.655 265.263 168.949 265.065 171.255 264.904C175.744 264.57 180.245 264.323 184.746 264.162C193.835 263.828 202.899 263.939 211.988 264.112C227.761 264.397 244.989 263.852 258.074 253.783C263.734 249.428 267.804 243.453 270.233 236.748C272.7 229.919 273.588 222.583 273.748 215.347C273.785 213.553 273.773 211.734 273.736 209.928Z" fill="#455A64"/>
<path d="M179.295 272.883C176.077 272.945 172.858 273.081 169.639 273.18C166.963 273.267 164.275 273.242 161.648 273.897C159.219 274.504 157.282 274.801 155.285 277.534C152.793 280.949 139.253 307.2 133.567 318.816C131.989 322.045 130.435 325.273 128.906 328.515C127.327 331.867 125.934 335.306 124.355 338.659C124.294 338.782 124.479 338.881 124.54 338.758C125.934 335.949 127.488 333.228 128.918 330.444C130.361 327.661 131.755 324.853 133.161 322.045C135.985 316.379 138.809 310.713 141.645 305.047C144.457 299.443 147.873 293.975 150.734 288.384C153.139 283.683 156.407 277.275 158.701 276.335C161.389 275.221 165.779 274.108 168.665 273.91C172.217 273.662 175.768 273.44 179.308 273.143C179.468 273.118 179.468 272.883 179.295 272.883Z" fill="#455A64"/>
<path d="M233.126 67.3671C245.026 77.5977 241.709 92.5293 246.679 100.62C249.713 105.568 259.615 110.801 261.589 116.504C264.82 125.881 256.902 129.246 258.678 134.343C261.194 141.555 270.825 140.998 272.552 152.812C274.291 164.626 261.33 177.183 230.598 180.585C199.866 183.974 182.971 172.692 181.873 162.672C180.775 152.651 190.999 149.324 191.689 141.839C192.133 137.064 185.819 133.724 185.499 124.928C185.178 116.133 193.724 113.263 194.945 105.791C196.178 98.2817 192.232 80.1585 203.171 70.8928C214.134 61.627 227.256 62.3074 233.126 67.3671Z" fill="#263238"/>
<path d="M231.745 67.6269C235.136 70.0145 237.713 73.0948 239.65 76.7689C241.647 80.5915 242.979 84.7233 244.04 88.8923C244.669 91.3541 245.248 93.8777 246.432 96.1539C247.456 98.1209 248.923 99.7786 250.564 101.263C253.893 104.282 257.852 106.57 260.849 109.96C263.673 113.176 265.88 117.469 264.746 121.836C264.129 124.211 262.563 126.153 261.601 128.38C260.676 130.483 260.306 133.093 262.107 134.85C263.648 136.347 265.868 137.027 267.619 138.252C269.333 139.452 270.862 140.924 272.108 142.619C274.636 146.058 275.734 150.251 274.932 154.482C273.119 164.07 264.154 169.525 255.866 172.964C254.707 173.447 253.548 173.904 252.389 174.374C252.204 174.449 252.056 174.189 252.241 174.102C260.553 170.366 270.197 165.987 273.391 156.672C274.833 152.478 274.365 148.037 271.96 144.301C270.801 142.507 269.284 140.936 267.57 139.662C265.893 138.425 263.969 137.658 262.267 136.483C260.54 135.295 259.554 133.538 259.652 131.411C259.763 129.159 260.861 127.192 261.946 125.275C263.093 123.246 264.067 121.205 263.907 118.817C263.759 116.578 262.723 114.463 261.453 112.657C258.863 108.982 255.04 106.57 251.599 103.787C248.146 100.991 245.384 97.7621 244.114 93.4076C243.473 91.2056 243.078 88.9418 242.535 86.7274C242.03 84.6615 241.438 82.6203 240.698 80.6286C239.255 76.6823 237.195 72.8597 234.199 69.8784C233.409 69.099 232.583 68.3939 231.658 67.7877C231.547 67.7259 231.646 67.565 231.745 67.6269Z" fill="#263238"/>
<path d="M180.504 155.323C180.886 153.703 181.602 152.144 182.625 150.833C183.698 149.472 184.993 148.322 186.177 147.072C187.299 145.885 188.36 144.548 188.693 142.903C189.087 140.936 188.261 139.043 187.336 137.349C186.374 135.567 185.289 133.885 184.586 131.98C183.908 130.136 183.525 128.194 183.414 126.227C183.192 122.133 184.389 118.236 186.51 114.76C187.558 113.04 188.742 111.407 189.803 109.688C190.974 107.795 191.887 105.828 192.528 103.7C193.909 99.0611 194.205 94.1622 195.34 89.4489C196.499 84.6243 198.225 79.9482 200.334 75.47C200.384 75.3586 200.544 75.4576 200.495 75.5689C198.583 79.6142 197.153 83.845 196.129 88.1995C195.155 92.3313 194.772 96.525 194.045 100.694C193.687 102.735 193.231 104.764 192.491 106.706C191.788 108.512 190.838 110.207 189.827 111.865C187.755 115.267 185.61 118.619 185.03 122.64C184.463 126.623 185.141 130.619 187.015 134.182C188.631 137.25 190.9 140.627 189.482 144.214C188.286 147.258 185.4 149.076 183.476 151.587C181.367 154.359 180.751 157.934 181.392 161.336C183.044 169.97 191.677 174.251 199.742 174.684C199.989 174.696 199.989 175.08 199.73 175.08C192.713 174.993 185.067 171.9 181.774 165.307C180.257 162.263 179.715 158.664 180.504 155.323Z" fill="#263238"/>
<path d="M227.897 129.728C224.962 141.839 205.748 184.172 198.916 188.749C191.011 194.056 149.143 215.272 141.25 212.712C138.513 211.821 126.822 182.514 132.075 180.238C148.107 173.273 178.346 168.003 182.613 164.267C185.437 161.806 202.517 141.79 218.167 124.953C224.086 118.607 229.784 121.922 227.897 129.728Z" fill="#FFCEC8"/>
<path d="M230.129 128.986C228.649 136.841 221.866 151.748 221.866 151.748L192.466 146.837C192.466 146.837 209.398 127.242 221.78 120.376C226.737 117.63 231.621 121.032 230.129 128.986Z" fill="#8984AA"/>
<path d="M230.129 128.986C228.649 136.841 221.866 151.748 221.866 151.748L192.466 146.837C192.466 146.837 209.398 127.242 221.78 120.376C226.737 117.63 231.621 121.032 230.129 128.986Z" fill="#8984AA"/>
<path d="M220.954 136.297C220.954 137.547 221.965 138.561 223.21 138.561C224.456 138.561 225.467 137.547 225.467 136.297C225.467 135.048 224.456 134.033 223.21 134.033C221.965 134.033 220.954 135.048 220.954 136.297Z" fill="white"/>
<path d="M222.323 147.728C218.006 146.713 213.678 145.761 209.312 144.994C207.129 144.61 204.946 144.264 202.751 143.955C200.568 143.645 198.336 143.559 196.154 143.212C196.03 143.188 196.006 143.386 196.129 143.398C198.324 143.621 200.507 144.153 202.677 144.499C204.86 144.845 207.043 145.204 209.226 145.588C213.579 146.33 217.945 147.072 222.286 147.913C222.421 147.938 222.434 147.752 222.323 147.728Z" fill="#263238"/>
<path opacity="0.1" d="M199.002 147.938L221.854 151.748C221.854 151.748 228.637 136.854 230.104 128.974C230.856 124.916 229.969 122.058 228.242 120.574L199.002 147.938Z" fill="black"/>
<path d="M205.131 205.846L285.069 208.481C285.069 208.481 260.812 138.648 243.238 121.972C235.247 114.388 227.983 116.059 222.076 121.625C220.608 123.011 202.862 148.68 201.752 157.315C200.766 164.948 207.388 172.939 207.388 172.939L205.131 205.846Z" fill="#8984AA"/>
<path d="M262.785 157.686C262.785 158.936 263.796 159.95 265.042 159.95C265.251 159.95 265.461 159.925 265.658 159.851C265.042 158.49 264.425 157.142 263.796 155.806C263.179 156.202 262.785 156.895 262.785 157.686ZM237.158 155.422C238.404 155.422 239.415 156.437 239.415 157.686C239.415 158.936 238.404 159.95 237.158 159.95C235.913 159.95 234.902 158.936 234.902 157.686C234.902 156.437 235.913 155.422 237.158 155.422ZM209.263 155.422C210.508 155.422 211.52 156.437 211.52 157.686C211.52 158.936 210.508 159.95 209.263 159.95C208.017 159.95 207.006 158.936 207.006 157.686C207.018 156.437 208.017 155.422 209.263 155.422ZM251.094 134.033C252.339 134.033 253.351 135.048 253.351 136.297C253.351 137.547 252.339 138.561 251.094 138.561C249.848 138.561 248.837 137.547 248.837 136.297C248.837 135.048 249.848 134.033 251.094 134.033ZM223.211 134.033C224.456 134.033 225.467 135.048 225.467 136.297C225.467 137.547 224.456 138.561 223.211 138.561C221.965 138.561 220.954 137.547 220.954 136.297C220.954 135.048 221.965 134.033 223.211 134.033ZM265.042 199.166C266.287 199.166 267.298 200.18 267.298 201.429C267.298 202.679 266.287 203.693 265.042 203.693C263.796 203.693 262.785 202.679 262.785 201.429C262.785 200.18 263.796 199.166 265.042 199.166ZM237.158 199.166C238.404 199.166 239.415 200.18 239.415 201.429C239.415 202.679 238.404 203.693 237.158 203.693C235.913 203.693 234.902 202.679 234.902 201.429C234.902 200.18 235.913 199.166 237.158 199.166ZM209.263 199.166C210.508 199.166 211.52 200.18 211.52 201.429C211.52 202.679 210.508 203.693 209.263 203.693C208.017 203.693 207.006 202.679 207.006 201.429C207.018 200.18 208.017 199.166 209.263 199.166ZM251.094 177.776C252.339 177.776 253.351 178.791 253.351 180.04C253.351 181.29 252.339 182.304 251.094 182.304C249.848 182.304 248.837 181.29 248.837 180.04C248.837 178.791 249.848 177.776 251.094 177.776ZM223.211 177.776C224.456 177.776 225.467 178.791 225.467 180.04C225.467 181.29 224.456 182.304 223.211 182.304C221.965 182.304 220.954 181.29 220.954 180.04C220.954 178.791 221.965 177.776 223.211 177.776Z" fill="white"/>
<path d="M212.309 172.853C213.912 172.63 215.552 172.568 217.155 172.704C217.92 172.766 218.685 172.841 219.437 172.989C220.288 173.162 221.114 173.397 221.953 173.583C222.088 173.608 222.027 173.83 221.891 173.793C221.065 173.62 220.201 173.558 219.35 173.484C218.574 173.422 217.809 173.311 217.044 173.261C215.466 173.15 213.887 173.038 212.309 172.964C212.272 172.964 212.247 172.865 212.309 172.853Z" fill="#263238"/>
<path d="M211.643 169.414C215.281 169.562 218.771 170.094 222.273 171.121C225.862 172.173 229.451 173.583 233.175 174.028C233.311 174.04 233.311 174.263 233.175 174.251C231.387 174.053 229.611 173.855 227.835 173.583C226.059 173.311 224.321 172.865 222.569 172.482C218.907 171.665 215.367 170.292 211.655 169.711C211.458 169.674 211.458 169.414 211.643 169.414Z" fill="#263238"/>
<path d="M235.678 119.386C235.703 120.846 231.374 131.398 225.023 132.673C222.964 133.081 220.226 121.873 220.226 121.873L219.831 121.093L214.381 110.158L225.776 98.0467L227.453 96.4014C227.453 96.4014 228.748 99.4941 230.326 103.354C230.4 103.527 230.474 103.713 230.548 103.898C230.647 104.108 230.733 104.319 230.819 104.529C231.066 105.098 231.313 105.692 231.535 106.286C231.707 106.731 231.892 107.164 232.065 107.646C232.25 108.117 232.41 108.587 232.595 109.057C234.297 113.782 235.654 118.768 235.678 119.386Z" fill="#FFCEC8"/>
<path d="M230.326 103.354C229.303 113.399 222.89 118.99 219.831 121.093L214.381 110.158L225.776 98.0467L227.453 96.4013C227.453 96.389 228.748 99.4817 230.326 103.354Z" fill="#263238"/>
<path d="M193.046 97.4652C197.374 118.496 210.41 118.261 214.936 117.32C219.042 116.467 232.891 113.04 230.758 91.6757C228.624 70.3113 217.501 65.6846 208.017 67.1444C198.534 68.5918 188.717 76.4348 193.046 97.4652Z" fill="#FFCEC8"/>
<path d="M201.284 113.782C200.383 113.04 199.607 112.149 198.928 111.209C198.225 110.281 197.621 109.279 197.054 108.265C195.944 106.224 195.093 104.034 194.439 101.807C193.699 99.593 193.292 97.292 192.861 94.991L192.38 91.5149L192.022 88.0139L192.072 91.5396L192.38 95.0653C192.713 97.4034 193.144 99.7291 193.847 101.993C194.563 104.244 195.426 106.471 196.647 108.5C197.868 110.504 199.335 112.459 201.284 113.782Z" fill="#263238"/>
<path d="M194.859 91.2922C195.34 91.119 195.747 90.884 196.203 90.6736C196.721 90.4262 197.152 90.2902 197.448 89.783C197.609 89.5108 197.485 89.0531 197.239 88.8799C196.659 88.4593 195.956 88.5954 195.327 88.8675C194.649 89.1644 194.193 89.5603 193.847 90.2159C193.514 90.8345 194.23 91.5149 194.859 91.2922Z" fill="#263238"/>
<path d="M209.546 89.8819C209.041 89.9314 208.572 89.9067 208.066 89.9067C207.499 89.9067 207.043 89.9685 206.55 89.6469C206.291 89.4737 206.192 89.016 206.34 88.7438C206.673 88.1005 207.376 87.9273 208.054 87.8902C208.794 87.8531 209.374 88.0139 209.966 88.4593C210.558 88.8799 210.212 89.8077 209.546 89.8819Z" fill="#263238"/>
<path d="M207.413 95.7828C207.413 95.721 207.536 95.8323 207.549 95.8818C207.795 97.3168 208.326 98.9374 209.707 99.1477C209.744 99.16 209.756 99.2219 209.707 99.2343C208.091 99.3332 207.425 97.1807 207.413 95.7828Z" fill="#263238"/>
<path d="M208.387 94.0262C210.644 93.3829 211.766 97.9601 209.682 98.5662C207.61 99.1477 206.488 94.5705 208.387 94.0262Z" fill="#263238"/>
<path d="M209.337 94.0385C209.805 94.1993 210.299 94.5581 210.792 94.4839C211.359 94.3973 211.668 93.8158 211.914 93.2715C211.939 93.2097 211.988 93.2468 212 93.3086C212.235 94.187 212.111 95.1643 211.211 95.5354C210.385 95.8694 209.583 95.2385 209.139 94.4096C209.078 94.2488 209.152 93.9767 209.337 94.0385Z" fill="#263238"/>
<path d="M199.483 97.4157C199.459 97.3662 199.385 97.5147 199.409 97.5642C199.816 98.9744 200.038 100.644 198.879 101.449C198.842 101.473 198.867 101.548 198.916 101.523C200.408 100.917 200.088 98.6899 199.483 97.4157Z" fill="#263238"/>
<path d="M197.843 96.2653C195.525 96.6735 196.511 101.288 198.657 100.904C200.766 100.533 199.779 95.9189 197.843 96.2653Z" fill="#263238"/>
<path d="M196.943 96.7725C196.634 97.0941 196.363 97.6137 195.944 97.7374C195.45 97.8735 194.97 97.4529 194.55 97.0446C194.501 97.0075 194.476 97.0446 194.489 97.1065C194.649 97.9972 195.142 98.8508 196.018 98.8384C196.819 98.826 197.226 97.9477 197.251 97.0323C197.251 96.8591 197.078 96.6488 196.943 96.7725Z" fill="#263238"/>
<path d="M210.434 107.387C210.2 107.82 209.99 108.364 209.497 108.562C209.028 108.747 208.387 108.698 207.894 108.648C207.844 108.648 207.82 108.71 207.857 108.735C208.375 109.168 209.238 109.279 209.855 108.97C210.459 108.673 210.607 108.03 210.595 107.411C210.595 107.325 210.471 107.325 210.434 107.387Z" fill="#263238"/>
<path d="M203.306 103.638C203.306 103.638 203.504 105.828 203.738 106.83C203.763 106.929 204.009 106.917 204.355 106.855C204.367 106.855 204.379 106.855 204.392 106.842C206.217 106.706 207.857 105.679 208.597 103.985C208.646 103.873 208.498 103.799 208.412 103.886C207.314 105.16 205.921 105.754 204.367 106.15C204.231 105.89 204.145 102.376 203.985 102.401C203.43 102.488 202.443 103.106 201.839 103.453C201.284 98.8879 201.469 94.2859 200.84 89.7459C200.815 89.585 200.581 89.585 200.569 89.7459C200.038 94.5705 200.556 99.8281 201.013 104.554C201.062 105.135 202.949 103.898 203.306 103.638Z" fill="#263238"/>
<path d="M229.537 93.6303C227.218 93.8777 220.177 88.5582 218.117 77.474C218.117 77.474 220.645 87.2964 221.644 88.6325C222.643 89.9685 217.698 85.6387 215.922 76.7194C215.922 76.7194 211.581 81.1358 207.561 83.0409C203.541 84.946 200.951 85.3418 200.606 85.082C200.248 84.8223 206.13 81.8162 207.487 79.5894C207.487 79.5894 197.14 86.7274 192.035 88.0015C191.443 88.15 188.656 75.9277 195.771 69.334C202.887 62.7404 216.514 66.2537 220.473 68.9753C220.473 68.9753 224.567 68.8639 229.919 74.072C235.247 79.2554 232.028 93.3581 229.537 93.6303Z" fill="#263238"/>
<path d="M213.012 101.82C215.836 100.83 217.76 97.9972 217.476 94.8673C217.155 91.1685 213.887 88.4222 210.2 88.7438C206.513 89.0654 203.775 92.3437 204.095 96.0426C204.416 99.7414 207.684 102.488 211.372 102.166C211.939 102.117 212.494 102.005 213.012 101.82ZM208.856 89.9561C209.3 89.7953 209.781 89.6964 210.274 89.6469C213.468 89.3623 216.292 91.7499 216.576 94.9539C216.859 98.158 214.479 101.003 211.285 101.275C208.091 101.56 205.255 99.1724 204.983 95.9683C204.749 93.2591 206.414 90.8097 208.856 89.9561Z" fill="#8984AA"/>
<path d="M197.942 105.11C200.371 104.257 201.703 100.991 200.938 97.5642C200.556 95.8323 199.693 94.3107 198.534 93.2839C197.325 92.22 195.932 91.787 194.6 92.0839C193.268 92.3808 192.183 93.3581 191.541 94.8426C190.925 96.2776 190.801 98.0219 191.184 99.7538C191.998 103.378 194.834 105.84 197.522 105.234C197.67 105.209 197.806 105.16 197.942 105.11ZM194.464 93.0612C194.575 93.0241 194.686 92.987 194.797 92.9622C195.833 92.7272 196.955 93.086 197.942 93.9519C198.965 94.855 199.718 96.2158 200.075 97.7621C200.778 100.904 199.557 103.861 197.337 104.356C195.13 104.851 192.762 102.698 192.059 99.5559C191.714 98.0095 191.825 96.4632 192.368 95.2014C192.824 94.1251 193.564 93.3705 194.464 93.0612Z" fill="#8984AA"/>
<path d="M204.478 96.76L204.897 95.9559C203.713 95.3374 201.16 94.7312 199.952 96.8095L200.729 97.2672C201.814 95.4116 204.379 96.7106 204.478 96.76Z" fill="#8984AA"/>
<path d="M234.063 91.8983L234.753 91.3169C234.482 90.9953 232.065 88.1747 230.043 88.2984C228.143 88.4222 216.65 92.1581 216.156 92.319L216.44 93.1725C219.733 92.0963 228.637 89.2881 230.092 89.2015C231.436 89.1149 233.409 91.119 234.063 91.8983Z" fill="#8984AA"/>
<path d="M232.386 99.4198C232.09 99.6548 231.794 99.8157 231.51 99.9517C231.177 100.125 230.856 100.212 230.548 100.261C230.067 100.36 229.636 100.323 229.253 100.236C228.896 100.162 228.575 100.026 228.304 99.8651C227.588 99.4693 227.181 98.9373 227.181 98.9373L226.676 93.0983C226.676 93.0983 229.241 85.3418 232.62 86.0717C236.011 86.814 235.419 97.1312 232.386 99.4198Z" fill="#FFCEC8"/>
<path d="M232.386 89.0283C232.435 89.0036 232.472 89.0778 232.435 89.1149C230.338 90.7973 229.734 93.4076 229.537 95.9683C229.981 94.8673 230.807 94.088 232.25 94.5828C232.324 94.6076 232.299 94.7189 232.225 94.7313C231.177 94.8179 230.523 95.2014 230.104 96.1786C229.796 96.8714 229.685 97.6755 229.549 98.4178C229.5 98.6652 229.081 98.6652 229.093 98.393C229.093 98.3683 229.093 98.3559 229.093 98.3312C228.106 95.3127 229.204 90.3149 232.386 89.0283Z" fill="#263238"/>
<path d="M231.843 98.6405C231.892 99.1848 231.485 99.6672 230.943 99.7167C230.4 99.7662 229.919 99.358 229.87 98.8137C229.821 98.2693 230.228 97.7869 230.77 97.7374C231.313 97.6879 231.794 98.0962 231.843 98.6405Z" fill="white"/>
<path d="M233.372 96.6116C233.409 96.9951 233.126 97.3415 232.743 97.3786C232.361 97.4157 232.016 97.1312 231.979 96.7477C231.942 96.3642 232.225 96.0178 232.608 95.9807C232.99 95.9436 233.335 96.2281 233.372 96.6116Z" fill="white"/>
<path d="M220.547 86.2325L225.529 80.8265L226.849 82.2615L221.311 87.0242L220.547 86.2325Z" fill="#8984AA"/>
<path d="M221.706 87.717L227.564 83.2759L228.612 84.9336L222.31 88.6324L221.706 87.717Z" fill="#8984AA"/>
<path d="M247.875 125.893C256.693 134.194 283.565 166.791 283.515 176.119C283.441 190.32 233.878 209.186 226.121 213.887C222.816 215.891 211.15 181.352 214.64 179.137C217.686 177.207 251.18 168.882 251.106 167.348C251.045 166.074 243.83 149.992 238.367 130.421C234.1 115.081 243.275 121.564 247.875 125.893Z" fill="#FFCEC8"/>
<path d="M202.641 191.199C204.194 189.566 203.356 188.737 199.397 189.306C195.402 189.863 180.282 195.454 178.778 189.986C177.261 184.494 198.793 176.935 205.452 176.515C212.099 176.069 223.013 177.727 223.013 177.727C219.129 180.04 210.225 186.56 202.641 191.199Z" fill="#FFCEC8"/>
<path d="M197.054 189.813C194.871 190.061 192.725 190.555 190.58 191.038C188.446 191.533 186.313 192.102 184.167 192.324C183.106 192.423 182.021 192.436 181.084 192.114C180.146 191.817 179.48 190.976 179.283 190.048C179.111 189.158 179.665 188.217 180.344 187.45C181.047 186.683 181.885 186.003 182.773 185.397C184.537 184.16 186.473 183.133 188.434 182.18C190.407 181.24 192.405 180.362 194.464 179.644C196.524 178.915 198.62 178.259 200.729 177.665C202.838 177.096 204.959 176.453 207.154 176.44C204.947 176.242 202.764 176.799 200.618 177.232C198.472 177.739 196.351 178.321 194.242 178.964C192.121 179.583 190.086 180.498 188.076 181.401C186.078 182.341 184.093 183.356 182.255 184.63C181.343 185.273 180.455 185.991 179.69 186.857C178.963 187.71 178.21 188.848 178.457 190.197C178.716 191.421 179.628 192.498 180.812 192.856C181.972 193.24 183.143 193.141 184.241 193.017C188.668 192.3 192.738 190.667 197.054 189.813Z" fill="#263238"/>
<path d="M147.737 211.833H229.87V215.532H147.737V211.833Z" fill="#C7C7C7"/>
<path d="M196.795 211.833L199.607 215.532H132.236V211.833H196.795Z" fill="#A6A6A6"/>
<path d="M193.293 215.532H113.244L106.572 160.989H186.621L193.293 215.532Z" fill="#C7C7C7"/>
<path d="M154.804 188.255C154.853 190.951 152.707 193.141 150.019 193.141C147.331 193.141 145.111 190.951 145.061 188.255C145.012 185.558 147.158 183.368 149.846 183.368C152.535 183.368 154.755 185.558 154.804 188.255Z" fill="white"/>
<path d="M236.776 208.171C225.356 215.903 212.001 222.596 197.621 222.126C194.797 222.027 193.219 220.555 193.219 220.555C186.769 220.456 184.882 217.375 184.882 217.375C178.901 215.433 177.396 212.019 177.396 212.019C177.396 212.019 169.824 211.821 169.183 207.207C168.455 202.036 179.234 203.334 185.585 200.403C200.162 193.698 219.005 180.077 223.013 177.727L236.776 208.171Z" fill="#FFCEC8"/>
<path d="M205.785 204.139C201.457 206.031 197.251 207.998 192.701 209.285C187.694 210.695 182.65 211.215 177.52 211.87C177.359 211.895 177.372 212.118 177.532 212.118C187.003 212.402 197.806 209.26 205.884 204.324C206.069 204.213 206.007 204.04 205.785 204.139Z" fill="#263238"/>
<path d="M211.1 212.365C206.784 213.961 199.187 216.732 184.882 217.215C184.833 217.215 184.82 217.301 184.87 217.301C194.205 218.229 202.751 216.534 211.174 212.575C211.433 212.452 211.384 212.266 211.1 212.365Z" fill="#263238"/>
<path d="M213.863 216.856C206.427 219.305 201.432 219.899 193.243 220.53C193.194 220.53 193.194 220.617 193.243 220.617C202.616 220.876 206.057 219.911 213.986 217.103C214.258 217.004 214.159 216.757 213.863 216.856Z" fill="#263238"/>
<path d="M272.626 149.757L242.4 153.072C242.4 153.072 237.158 138.672 235.37 130.297C233.015 119.213 236.566 115.737 247.666 124.062C255.09 129.617 272.626 149.757 272.626 149.757Z" fill="#8984AA"/>
<path d="M272.626 149.757L242.4 153.072C242.4 153.072 237.158 138.672 235.37 130.297C233.015 119.213 236.566 115.737 247.666 124.062C255.09 129.617 272.626 149.757 272.626 149.757Z" fill="#8984AA"/>
<path d="M248.837 136.297C248.837 137.547 249.848 138.561 251.094 138.561C252.339 138.561 253.351 137.547 253.351 136.297C253.351 135.048 252.339 134.033 251.094 134.033C249.848 134.033 248.837 135.048 248.837 136.297Z" fill="white"/>
<path d="M246.087 152.676C245.754 152.651 242.646 152.886 242.424 152.973C241.845 151.266 241.302 149.546 240.71 147.839C240.414 146.986 240.106 146.144 239.773 145.303C239.415 144.375 239.057 143.299 238.749 142.483C238.7 142.359 238.527 142.408 238.564 142.532C238.873 143.633 239.131 144.45 239.403 145.414C239.637 146.268 239.908 147.122 240.18 147.963C240.772 149.744 241.314 151.674 241.993 153.418C242.042 153.554 245.791 152.874 246.112 152.775C246.161 152.763 246.136 152.676 246.087 152.676Z" fill="#263238"/>
<path d="M267.964 146.231C263.697 146.404 259.455 146.639 255.2 147.06C253.079 147.27 250.971 147.505 248.862 147.79C246.753 148.062 244.669 148.557 242.56 148.804C242.449 148.816 242.474 149.002 242.585 148.99C244.669 148.631 246.839 148.569 248.948 148.322C251.069 148.087 253.178 147.852 255.299 147.641C259.529 147.208 263.759 146.763 268.001 146.429C268.112 146.404 268.075 146.231 267.964 146.231Z" fill="#263238"/>
<path d="M254.448 130.483C254.362 130.396 254.485 130.273 254.572 130.347C255.965 131.547 257.322 132.759 258.678 133.984C258.296 133.39 257.864 132.833 257.371 132.339C257.346 132.314 257.383 132.277 257.408 132.301C258.123 132.969 258.715 133.724 259.27 134.528C261.034 136.149 262.76 137.806 264.437 139.551C267.483 142.718 270.566 145.996 273.156 149.546C273.317 149.757 273.119 150.016 272.897 150.041C271.467 150.19 269.962 150.289 268.556 150.573C268.396 150.61 268.359 150.375 268.519 150.35C269.765 150.177 271.035 149.843 272.281 149.534C269.37 146.441 266.62 143.188 263.722 140.095C260.664 136.866 257.618 133.6 254.448 130.483Z" fill="#263238"/>
<path d="M107.818 170.205C104.796 174.882 97.3476 180.337 96.324 184.345C95.3991 187.958 98.2725 189.665 98.2725 189.665C98.2725 189.665 93.9562 191.149 93.6232 194.947C93.4506 196.902 96.4103 198.881 96.4103 198.881C96.4103 198.881 93.0066 200.229 92.9203 203.619C92.8463 206.316 95.8184 207.912 95.8184 207.912C95.8184 207.912 93.1546 210.732 93.9562 213.503C95.5964 219.132 118.51 222.163 123.159 214.171C125.329 210.448 119.694 210.002 119.694 210.002C119.694 210.002 127.956 208.666 128.696 203.941C129.436 199.215 122.086 199.091 122.086 199.091C122.086 199.091 130.077 197.73 130.361 192.757C130.657 187.574 123.27 188.725 123.27 188.725C123.27 188.725 128.819 185.929 128.166 182.081C127.081 175.71 114.021 182.477 109.137 180.622L107.818 170.205Z" fill="#FFCEC8"/>
<path d="M96.2623 208.221C96.1883 208.208 96.1513 208.307 96.2253 208.332C103.514 211.177 112.405 212.056 120.014 210.052C120.261 209.99 120.261 209.544 119.977 209.569C111.727 210.126 104.377 209.965 96.2623 208.221Z" fill="#263238"/>
<path d="M96.2992 198.918C96.2129 198.893 96.1759 199.042 96.2745 199.079C103.81 201.961 113.836 202.679 122.345 199.339C122.641 199.227 122.789 198.831 122.444 198.93C116.61 200.724 103.6 200.526 96.2992 198.918Z" fill="#263238"/>
<path d="M123.813 188.267C115.538 191.162 107.164 191.1 98.5808 189.788C98.4698 189.776 98.4574 189.937 98.5438 189.974C102.576 191.755 108.126 192.015 112.479 191.854C116.635 191.693 120.36 190.716 123.924 188.551C124.059 188.477 123.998 188.205 123.813 188.267Z" fill="#263238"/>
<path d="M126.271 50.8982C126.271 73.8982 107.605 92.5648 84.6047 92.5648C61.6047 92.5648 42.938 73.8982 42.938 50.8982C42.938 27.8982 61.6047 9.23151 84.6047 9.23151C107.605 9.23151 126.271 27.8982 126.271 50.8982Z" stroke="#263238" stroke-width="1.5" stroke-linecap="round" stroke-linejoin="round"/>
<path d="M100.063 64.1482L87.1463 56.4399C84.8963 55.1065 83.063 51.8982 83.063 49.2732V32.1899" stroke="#263238" stroke-width="1.5" stroke-linecap="round" stroke-linejoin="round"/>
<rect opacity="0.4" x="307.43" y="316.622" width="90" height="143.157" fill="#575089"/>
<circle cx="328.334" cy="355.942" r="4" fill="white"/>
<circle cx="341.092" cy="372.227" r="4" fill="white"/>
<circle cx="371.139" cy="346.159" r="4" fill="white"/>
<circle cx="332.334" cy="331.609" r="4" fill="white"/>
<circle cx="349.092" cy="350.159" r="4" fill="white"/>
<circle cx="359.139" cy="385.181" r="4" fill="white"/>
<circle cx="379.139" cy="366.973" r="4" fill="white"/>
<circle cx="387.139" cy="422.979" r="4" fill="white"/>
<circle cx="375.139" cy="403.238" r="4" fill="white"/>
<circle cx="363.139" cy="430.979" r="4" fill="white"/>
<circle cx="383.139" cy="447.562" r="4" fill="white"/>
<circle cx="328.334" cy="395.685" r="4" fill="white"/>
<circle cx="345.092" cy="419.137" r="4" fill="white"/>
<circle cx="349.092" cy="451.562" r="4" fill="white"/>
<circle cx="324.334" cy="440.708" r="4" fill="white"/>
</svg>
