<svg width="18" height="19" viewBox="0 0 18 19" fill="none" xmlns="http://www.w3.org/2000/svg">
<path d="M11.6849 9.36408C11.6849 10.8491 10.4849 12.0491 8.99994 12.0491C7.51494 12.0491 6.31494 10.8491 6.31494 9.36408C6.31494 7.87908 7.51494 6.67908 8.99994 6.67908C10.4849 6.67908 11.6849 7.87908 11.6849 9.36408Z" stroke="var(--icon-color)" stroke-linecap="round" stroke-linejoin="round"/>
<path d="M8.99988 15.5666C11.6474 15.5666 14.1149 14.0066 15.8324 11.3066C16.5074 10.2491 16.5074 8.47155 15.8324 7.41405C14.1149 4.71405 11.6474 3.15405 8.99988 3.15405C6.35238 3.15405 3.88488 4.71405 2.16738 7.41405C1.49238 8.47155 1.49238 10.2491 2.16738 11.3066C3.88488 14.0066 6.35238 15.5666 8.99988 15.5666Z" stroke="var(--icon-color)" stroke-linecap="round" stroke-linejoin="round"/>
</svg>
