<svg width="19" height="19" viewBox="0 0 19 19" fill="none" xmlns="http://www.w3.org/2000/svg">
<path d="M4.823 8.05188V6.55188C4.823 4.06938 5.573 2.05188 9.323 2.05188C13.073 2.05188 13.823 4.06938 13.823 6.55188V8.05188" stroke="var(--icon-color)" stroke-width="1.2" stroke-linecap="round" stroke-linejoin="round"/>
<path d="M9.323 14.4269C10.3585 14.4269 11.198 13.5874 11.198 12.5519C11.198 11.5163 10.3585 10.6769 9.323 10.6769C8.28746 10.6769 7.448 11.5163 7.448 12.5519C7.448 13.5874 8.28746 14.4269 9.323 14.4269Z" stroke="var(--icon-color)" stroke-width="1.2" stroke-linecap="round" stroke-linejoin="round"/>
<path d="M13.073 17.0519H5.573C2.573 17.0519 1.823 16.3019 1.823 13.3019V11.8019C1.823 8.80188 2.573 8.05188 5.573 8.05188H13.073C16.073 8.05188 16.823 8.80188 16.823 11.8019V13.3019C16.823 16.3019 16.073 17.0519 13.073 17.0519Z" stroke="var(--icon-color)" stroke-width="1.2" stroke-linecap="round" stroke-linejoin="round"/>
</svg>
