<svg width="24" height="25" viewBox="0 0 24 25" fill="none" xmlns="http://www.w3.org/2000/svg">
<path d="M12.1207 13.0417C12.0507 13.0317 11.9607 13.0317 11.8807 13.0417C10.1207 12.9817 8.7207 11.5417 8.7207 9.7717C8.7207 7.9617 10.1807 6.4917 12.0007 6.4917C13.8107 6.4917 15.2807 7.9617 15.2807 9.7717C15.2707 11.5417 13.8807 12.9817 12.1207 13.0417Z" stroke="var(--user-icon-color)" stroke-width="1.6" stroke-linecap="round" stroke-linejoin="round"/>
<path d="M18.7398 19.6417C16.9598 21.2717 14.5998 22.2617 11.9998 22.2617C9.39977 22.2617 7.03977 21.2717 5.25977 19.6417C5.35977 18.7017 5.95977 17.7817 7.02977 17.0617C9.76977 15.2417 14.2498 15.2417 16.9698 17.0617C18.0398 17.7817 18.6398 18.7017 18.7398 19.6417Z" stroke="var(--user-icon-color)" stroke-width="1.6" stroke-linecap="round" stroke-linejoin="round"/>
<path d="M12 22.2617C17.5228 22.2617 22 17.7846 22 12.2617C22 6.73887 17.5228 2.26172 12 2.26172C6.47715 2.26172 2 6.73887 2 12.2617C2 17.7846 6.47715 22.2617 12 22.2617Z" stroke="var(--user-icon-color)" stroke-width="1.6" stroke-linecap="round" stroke-linejoin="round"/>
</svg>
