<svg width="51" height="51" viewBox="0 0 51 51" fill="none" xmlns="http://www.w3.org/2000/svg">
<path d="M18 50.5H33C45.5 50.5 50.5 45.5 50.5 33V18C50.5 5.5 45.5 0.5 33 0.5H18C5.5 0.5 0.5 5.5 0.5 18V33C0.5 45.5 5.5 50.5 18 50.5Z" fill="#736BC4"/>
<path d="M29.0843 28.8628V15.6962C29.0843 14.4462 28.551 13.9462 27.226 13.9462H23.8593C22.5343 13.9462 22.001 14.4462 22.001 15.6962V28.8628C22.001 30.1128 22.5343 30.6128 23.8593 30.6128H27.226C28.551 30.6128 29.0843 30.1128 29.0843 28.8628Z" fill="white"/>
<path d="M38.6683 23.0295V15.6962C38.6683 14.4462 38.135 13.9462 36.81 13.9462H33.4433C32.1183 13.9462 31.585 14.4462 31.585 15.6962V23.0295C31.585 24.2795 32.1183 24.7795 33.4433 24.7795H36.81C38.135 24.7795 38.6683 24.2795 38.6683 23.0295Z" fill="white"/>
<path d="M19.4984 18.9769V14.9154C19.4984 14.2231 18.965 13.9462 17.64 13.9462H14.2734C12.9484 13.9462 12.415 14.2231 12.415 14.9154V18.9769C12.415 19.6692 12.9484 19.9462 14.2734 19.9462H17.64C18.965 19.9462 19.4984 19.6692 19.4984 18.9769Z" fill="white"/>
<path d="M19.4984 33.2769V24.5328C19.4984 23.0424 18.965 22.4462 17.64 22.4462H14.2734C12.9484 22.4462 12.415 23.0424 12.415 24.5328V33.2769C12.415 34.7673 12.9484 35.3635 14.2734 35.3635H17.64C18.965 35.3635 19.4984 34.7673 19.4984 33.2769Z" fill="#292D32"/>
</svg>
