<svg width="22" height="22" viewBox="0 0 22 22" fill="none" xmlns="http://www.w3.org/2000/svg">
<path d="M21.0117 21L19.0117 19M10.5117 20C11.7593 20 12.9946 19.7543 14.1472 19.2769C15.2998 18.7994 16.3471 18.0997 17.2292 17.2175C18.1114 16.3354 18.8112 15.2881 19.2886 14.1355C19.766 12.9829 20.0117 11.7476 20.0117 10.5C20.0117 9.25244 19.766 8.0171 19.2886 6.86451C18.8112 5.71191 18.1114 4.66464 17.2292 3.78249C16.3471 2.90033 15.2998 2.20056 14.1472 1.72314C12.9946 1.24572 11.7593 1 10.5117 1C7.99216 1 5.5758 2.00089 3.7942 3.78249C2.01261 5.56408 1.01172 7.98044 1.01172 10.5C1.01172 13.0196 2.01261 15.4359 3.7942 17.2175C5.5758 18.9991 7.99216 20 10.5117 20V20Z" stroke="black" stroke-width="1.5" stroke-linecap="round" stroke-linejoin="round"/>
</svg>
