<svg width="24" height="25" viewBox="0 0 24 25" fill="none" xmlns="http://www.w3.org/2000/svg">
<path d="M12 15.2617C13.6569 15.2617 15 13.9186 15 12.2617C15 10.6049 13.6569 9.26172 12 9.26172C10.3431 9.26172 9 10.6049 9 12.2617C9 13.9186 10.3431 15.2617 12 15.2617Z" stroke="var(--user-icon-color)" stroke-width="1.6" stroke-miterlimit="10" stroke-linecap="round" stroke-linejoin="round"/>
<path d="M2 13.1421V11.3821C2 10.3421 2.85 9.48214 3.9 9.48214C5.71 9.48214 6.45 8.20214 5.54 6.63214C5.02 5.73214 5.33 4.56214 6.24 4.04214L7.97 3.05214C8.76 2.58214 9.78 2.86214 10.25 3.65214L10.36 3.84214C11.26 5.41214 12.74 5.41214 13.65 3.84214L13.76 3.65214C14.23 2.86214 15.25 2.58214 16.04 3.05214L17.77 4.04214C18.68 4.56214 18.99 5.73214 18.47 6.63214C17.56 8.20214 18.3 9.48214 20.11 9.48214C21.15 9.48214 22.01 10.3321 22.01 11.3821V13.1421C22.01 14.1821 21.16 15.0421 20.11 15.0421C18.3 15.0421 17.56 16.3221 18.47 17.8921C18.99 18.8021 18.68 19.9621 17.77 20.4821L16.04 21.4721C15.25 21.9421 14.23 21.6621 13.76 20.8721L13.65 20.6821C12.75 19.1121 11.27 19.1121 10.36 20.6821L10.25 20.8721C9.78 21.6621 8.76 21.9421 7.97 21.4721L6.24 20.4821C5.33 19.9621 5.02 18.7921 5.54 17.8921C6.45 16.3221 5.71 15.0421 3.9 15.0421C2.85 15.0421 2 14.1821 2 13.1421Z" stroke="var(--user-icon-color)" stroke-width="1.6" stroke-miterlimit="10" stroke-linecap="round" stroke-linejoin="round"/>
</svg>
