<svg width="22" height="23" viewBox="0 0 22 23" fill="none" xmlns="http://www.w3.org/2000/svg">
<path d="M3.82285 14.7867L7.97535 18.9392C9.68035 20.6442 12.4487 20.6442 14.1628 18.9392L18.187 14.915C19.892 13.21 19.892 10.4417 18.187 8.72754L14.0253 4.5842C13.1545 3.71337 11.9537 3.24587 10.7253 3.31004L6.14202 3.53004C4.30868 3.61254 2.85118 5.07004 2.75952 6.8942L2.53952 11.4775C2.48452 12.715 2.95202 13.9159 3.82285 14.7867Z" stroke="var(--add-button-color)" stroke-width="1.3" stroke-linecap="round" stroke-linejoin="round"/>
<path d="M8.70964 11.7606C9.97529 11.7606 11.0013 10.7346 11.0013 9.46891C11.0013 8.20326 9.97529 7.17725 8.70964 7.17725C7.44398 7.17725 6.41797 8.20326 6.41797 9.46891C6.41797 10.7346 7.44398 11.7606 8.70964 11.7606Z" stroke="var(--add-button-color)" stroke-width="1.3" stroke-linecap="round"/>
</svg>
