<svg width="20" height="21" viewBox="0 0 20 21" fill="none" xmlns="http://www.w3.org/2000/svg">
<path d="M17.5 5.7443C14.725 5.4693 11.9333 5.32764 9.15 5.32764C7.5 5.32764 5.85 5.41097 4.2 5.57764L2.5 5.7443" stroke="var(--add-button-color)" stroke-width="1.3" stroke-linecap="round" stroke-linejoin="round"/>
<path d="M7.08203 4.90225L7.26536 3.81058C7.3987 3.01891 7.4987 2.42725 8.90703 2.42725H11.0904C12.4987 2.42725 12.607 3.05225 12.732 3.81891L12.9154 4.90225" stroke="var(--add-button-color)" stroke-width="1.3" stroke-linecap="round" stroke-linejoin="round"/>
<path d="M15.7096 8.37842L15.168 16.7701C15.0763 18.0784 15.0013 19.0951 12.6763 19.0951H7.3263C5.0013 19.0951 4.9263 18.0784 4.83464 16.7701L4.29297 8.37842" stroke="var(--add-button-color)" stroke-width="1.3" stroke-linecap="round" stroke-linejoin="round"/>
<path d="M8.60938 14.5112H11.3844" stroke="var(--add-button-color)" stroke-width="1.3" stroke-linecap="round" stroke-linejoin="round"/>
<path d="M7.91797 11.1772H12.0846" stroke="var(--add-button-color)" stroke-width="1.3" stroke-linecap="round" stroke-linejoin="round"/>
</svg>
