<svg width="26" height="27" viewBox="0 0 26 27" fill="none" xmlns="http://www.w3.org/2000/svg">
<path d="M19.652 24.1826C18.6986 24.4643 17.572 24.5943 16.2503 24.5943H9.7503C8.42863 24.5943 7.30197 24.4643 6.34863 24.1826C6.58697 21.366 9.47947 19.1451 13.0003 19.1451C16.5211 19.1451 19.4136 21.366 19.652 24.1826Z" stroke="var(--user-icon-color)" stroke-width="1.3" stroke-linecap="round" stroke-linejoin="round"/>
<path d="M16.2503 2.92789H9.75032C4.33366 2.92789 2.16699 5.09455 2.16699 10.5112V17.0112C2.16699 21.1062 3.40199 23.3487 6.34866 24.1829C6.58699 21.3662 9.47949 19.1454 13.0003 19.1454C16.5212 19.1454 19.4137 21.3662 19.652 24.1829C22.5987 23.3487 23.8337 21.1062 23.8337 17.0112V10.5112C23.8337 5.09455 21.667 2.92789 16.2503 2.92789ZM13.0003 16.112C10.8553 16.112 9.12199 14.3679 9.12199 12.2229C9.12199 10.0779 10.8553 8.34455 13.0003 8.34455C15.1453 8.34455 16.8787 10.0779 16.8787 12.2229C16.8787 14.3679 15.1453 16.112 13.0003 16.112Z" stroke="var(--user-icon-color)" stroke-width="1.3" stroke-linecap="round" stroke-linejoin="round"/>
<path d="M16.8778 12.2229C16.8778 14.3679 15.1444 16.1121 12.9994 16.1121C10.8544 16.1121 9.12109 14.3679 9.12109 12.2229C9.12109 10.0779 10.8544 8.34457 12.9994 8.34457C15.1444 8.34457 16.8778 10.0779 16.8778 12.2229Z" stroke="var(--user-icon-color)" stroke-width="1.3" stroke-linecap="round" stroke-linejoin="round"/>
</svg>
