<svg width="19" height="19" viewBox="0 0 19 19" fill="none" xmlns="http://www.w3.org/2000/svg">
<path d="M14.2364 16.725C13.5764 16.92 12.7964 17.01 11.8814 17.01H7.38137C6.46637 17.01 5.68637 16.92 5.02637 16.725C5.19137 14.775 7.19387 13.2375 9.63137 13.2375C12.0689 13.2375 14.0714 14.775 14.2364 16.725Z" stroke="var(--icon-color)" stroke-width="1.2" stroke-linecap="round" stroke-linejoin="round"/>
<path d="M11.8813 2.00999H7.38135C3.63135 2.00999 2.13135 3.50999 2.13135 7.25999V11.76C2.13135 14.595 2.98635 16.1475 5.02635 16.725C5.19135 14.775 7.19385 13.2375 9.63135 13.2375C12.0688 13.2375 14.0713 14.775 14.2363 16.725C16.2763 16.1475 17.1313 14.595 17.1313 11.76V7.25999C17.1313 3.50999 15.6313 2.00999 11.8813 2.00999ZM9.63135 11.1375C8.14635 11.1375 6.94635 9.93001 6.94635 8.44501C6.94635 6.96001 8.14635 5.75999 9.63135 5.75999C11.1163 5.75999 12.3163 6.96001 12.3163 8.44501C12.3163 9.93001 11.1163 11.1375 9.63135 11.1375Z" stroke="var(--icon-color)" stroke-width="1.2" stroke-linecap="round" stroke-linejoin="round"/>
<path d="M12.3163 8.44501C12.3163 9.93001 11.1163 11.1375 9.63129 11.1375C8.14629 11.1375 6.94629 9.93001 6.94629 8.44501C6.94629 6.96001 8.14629 5.75999 9.63129 5.75999C11.1163 5.75999 12.3163 6.96001 12.3163 8.44501Z" stroke="var(--icon-color)" stroke-width="1.2" stroke-linecap="round" stroke-linejoin="round"/>
</svg>
